# xmcd
#
# Track frame offsets:
#	150
#	12747
#	23407
#	33145
#	44692
#	51927
#	64427
#	78277
#	87460
#	98332
#	112507
#	121992
#	128437
#	141412
#	151332
#	164170
#
# Disc length: 2411 seconds
#
# Revision: 0
# Processed by: cddbd v1.5.2PL0 Copyright (c) Steve Scherf et al.
# Submitted via: EasyCDDAExtractor 10.2.0.1
#
DISCID=ca096910
DTITLE=The Village Singers - Who Put The Color In The Rose
DYEAR=2006
DGENRE=Gospel
TTITLE0=Who Put The Color In The Rose
TTITLE1=This Old House
TTITLE2=Just Over In Gloryland
TTITLE3=Grandma Whistled
TTITLE4=We Are Climbing
TTITLE5=Will There Be Any Stars In My Crown
TTITLE6=In My Lonely Hour
TTITLE7=I'll Be A Friend Of Jesus
TTITLE8=Glory Days Are Coming
TTITLE9=One Day At A Time
TTITLE10=One Of These Days
TTITLE11=When I See The Blood
TTITLE12=The Lighthouse
TTITLE13=The River Of Jordan
TTITLE14=THe Family Who Prays
TTITLE15=A Carpenter, A Mother And A King
EXTD=
EXTT0=
EXTT1=
EXTT2=
EXTT3=
EXTT4=
EXTT5=
EXTT6=
EXTT7=
EXTT8=
EXTT9=
EXTT10=
EXTT11=
EXTT12=
EXTT13=
EXTT14=
EXTT15=
PLAYORDER=
